<mxfile host="app.diagrams.net" modified="2023-08-03T15:00:28.502Z" agent="Mozilla/5.0 (Macintosh; Intel Mac OS X 10_15_7) AppleWebKit/537.36 (KHTML, like Gecko) Chrome/114.0.0.0 Safari/537.36 OPR/100.0.0.0" etag="LrgoEyixeCYE7Y5OJTJ6" version="21.6.1" type="github" pages="2">
  <diagram name="Page-1" id="9361dd3d-8414-5efd-6122-117bd74ce7a7">
    <mxGraphModel dx="1929" dy="1457" grid="1" gridSize="10" guides="1" tooltips="1" connect="1" arrows="1" fold="1" page="0" pageScale="1.5" pageWidth="826" pageHeight="1169" background="none" math="0" shadow="0">
      <root>
        <mxCell id="0" />
        <mxCell id="1" parent="0" />
        <mxCell id="ZABzDabRQoCFE8bYCM8C-161" value="" style="rounded=0;whiteSpace=wrap;html=1;fontSize=16;fillColor=#ffe6cc;strokeColor=#d79b00;" vertex="1" parent="1">
          <mxGeometry x="780" y="-20" width="990" height="1220" as="geometry" />
        </mxCell>
        <mxCell id="ZABzDabRQoCFE8bYCM8C-167" style="edgeStyle=none;curved=1;rounded=0;orthogonalLoop=1;jettySize=auto;html=1;entryX=0.088;entryY=0.263;entryDx=0;entryDy=0;entryPerimeter=0;fontSize=12;startSize=8;endSize=8;" edge="1" parent="1" source="ZABzDabRQoCFE8bYCM8C-127" target="ZABzDabRQoCFE8bYCM8C-107">
          <mxGeometry relative="1" as="geometry" />
        </mxCell>
        <mxCell id="ZABzDabRQoCFE8bYCM8C-129" style="edgeStyle=none;curved=1;rounded=0;orthogonalLoop=1;jettySize=auto;html=1;entryX=-0.323;entryY=0.152;entryDx=0;entryDy=0;entryPerimeter=0;fontSize=12;startSize=8;endSize=8;" edge="1" parent="1" source="ZABzDabRQoCFE8bYCM8C-127" target="ZABzDabRQoCFE8bYCM8C-107">
          <mxGeometry relative="1" as="geometry" />
        </mxCell>
        <mxCell id="ZABzDabRQoCFE8bYCM8C-163" value="" style="rounded=0;whiteSpace=wrap;html=1;fontSize=16;fillColor=#dae8fc;strokeColor=#6c8ebf;" vertex="1" parent="1">
          <mxGeometry x="-60" y="-20" width="820" height="1220" as="geometry" />
        </mxCell>
        <mxCell id="ZABzDabRQoCFE8bYCM8C-104" value="" style="edgeStyle=none;endArrow=none;dashed=1;exitX=0.5;exitY=1;exitDx=0;exitDy=0;" edge="1" parent="1">
          <mxGeometry x="614.4878472222224" y="174.99999999999997" width="100" height="100" as="geometry">
            <mxPoint x="514.7839506172841" y="110" as="sourcePoint" />
            <mxPoint x="514" y="1200" as="targetPoint" />
          </mxGeometry>
        </mxCell>
        <mxCell id="33" value="" style="edgeStyle=elbowEdgeStyle;elbow=horizontal;endArrow=none;dashed=1" parent="1" edge="1">
          <mxGeometry x="230.00000000000003" y="310" width="100" height="100" as="geometry">
            <mxPoint x="205" y="110" as="sourcePoint" />
            <mxPoint x="205" y="810" as="targetPoint" />
          </mxGeometry>
        </mxCell>
        <mxCell id="3" value="" style="edgeStyle=none;verticalLabelPosition=top;verticalAlign=bottom;labelPosition=left;align=right" parent="1" edge="1">
          <mxGeometry width="100" height="100" as="geometry">
            <mxPoint x="110" y="149.5" as="sourcePoint" />
            <mxPoint x="200" y="149.5" as="targetPoint" />
            <mxPoint x="-25" y="-29" as="offset" />
          </mxGeometry>
        </mxCell>
        <mxCell id="4" value="Client" style="shadow=1;fillColor=#A2C4C9;strokeColor=none" parent="1" vertex="1">
          <mxGeometry x="152.5" y="60" width="105" height="50" as="geometry" />
        </mxCell>
        <mxCell id="6" value="" style="fillColor=#CC4125;strokeColor=#660000" parent="1" vertex="1">
          <mxGeometry x="342.5" y="180" width="10" height="980" as="geometry" />
        </mxCell>
        <mxCell id="7" value="GateWay" style="shadow=1;fillColor=#A2C4C9;strokeColor=none" parent="1" vertex="1">
          <mxGeometry x="295" y="60" width="105" height="50" as="geometry" />
        </mxCell>
        <mxCell id="8" value="" style="edgeStyle=none;endArrow=none;dashed=1" parent="1" source="7" edge="1">
          <mxGeometry x="272.3350694444445" y="165" width="100" height="100" as="geometry">
            <mxPoint x="347.2588734567901" y="110" as="sourcePoint" />
            <mxPoint x="348" y="800" as="targetPoint" />
          </mxGeometry>
        </mxCell>
        <mxCell id="9" value="Request" style="edgeStyle=none;verticalLabelPosition=top;verticalAlign=bottom" parent="1" edge="1">
          <mxGeometry width="100" height="100" as="geometry">
            <mxPoint x="210" y="179.5" as="sourcePoint" />
            <mxPoint x="340" y="179.5" as="targetPoint" />
            <mxPoint x="5" y="-9" as="offset" />
          </mxGeometry>
        </mxCell>
        <mxCell id="11" value="" style="edgeStyle=none;verticalLabelPosition=top;verticalAlign=bottom;endArrow=none;startArrow=classic;dashed=1;entryX=0;entryY=1;entryDx=0;entryDy=0;exitX=1.05;exitY=0.964;exitDx=0;exitDy=0;exitPerimeter=0;" parent="1" edge="1" target="6" source="2">
          <mxGeometry x="220" y="172.25887345679013" width="100" height="100" as="geometry">
            <mxPoint x="210" y="259.7588734567901" as="sourcePoint" />
            <mxPoint x="340" y="259.7588734567901" as="targetPoint" />
          </mxGeometry>
        </mxCell>
        <mxCell id="ZABzDabRQoCFE8bYCM8C-115" value="&lt;font style=&quot;font-size: 11px;&quot;&gt;Response&lt;/font&gt;" style="edgeLabel;html=1;align=center;verticalAlign=middle;resizable=0;points=[];fontSize=16;" vertex="1" connectable="0" parent="11">
          <mxGeometry relative="1" as="geometry">
            <mxPoint x="2" y="-19" as="offset" />
          </mxGeometry>
        </mxCell>
        <mxCell id="12" value="" style="edgeStyle=none;verticalLabelPosition=top;verticalAlign=bottom;labelPosition=left;align=right;endArrow=none;startArrow=classic;dashed=1" parent="1" edge="1">
          <mxGeometry x="110" y="179.75887345679013" width="100" height="100" as="geometry">
            <mxPoint x="100" y="739.9988734567901" as="sourcePoint" />
            <mxPoint x="190" y="739.9988734567901" as="targetPoint" />
          </mxGeometry>
        </mxCell>
        <mxCell id="13" value="Identification / Session" style="edgeStyle=none;verticalLabelPosition=top;verticalAlign=bottom;dashed=1;startArrow=classic;startFill=1;endArrow=none;endFill=0;entryX=0;entryY=1;entryDx=0;entryDy=0;" parent="1" edge="1" target="17">
          <mxGeometry width="100" height="100" as="geometry">
            <mxPoint x="348" y="230" as="sourcePoint" />
            <mxPoint x="510" y="222" as="targetPoint" />
            <mxPoint x="3" y="-11" as="offset" />
          </mxGeometry>
        </mxCell>
        <mxCell id="15" value="Authentication" style="shadow=1;fillColor=#f8cecc;strokeColor=#b85450;" parent="1" vertex="1">
          <mxGeometry x="462.2839506172839" y="59.99999999999997" width="105" height="50" as="geometry" />
        </mxCell>
        <mxCell id="17" value="" style="fillColor=#CC4125;strokeColor=#660000" parent="1" vertex="1">
          <mxGeometry x="509.78" y="192.39" width="10" height="37.61" as="geometry" />
        </mxCell>
        <mxCell id="22" value="GW/BFF&#xa;(In the platform)" style="shadow=1;fillColor=#dae8fc;strokeColor=#6c8ebf;" parent="1" vertex="1">
          <mxGeometry x="870" y="60" width="105" height="50" as="geometry" />
        </mxCell>
        <mxCell id="23" value="" style="edgeStyle=none;endArrow=none;dashed=1" parent="1" source="ZABzDabRQoCFE8bYCM8C-107" edge="1">
          <mxGeometry x="614.4878472222224" y="174.99999999999997" width="100" height="100" as="geometry">
            <mxPoint x="674.6527777777778" y="110" as="sourcePoint" />
            <mxPoint x="920" y="1181" as="targetPoint" />
          </mxGeometry>
        </mxCell>
        <mxCell id="24" value="Service A" style="shadow=1;fillColor=#dae8fc;strokeColor=#6c8ebf;" parent="1" vertex="1">
          <mxGeometry x="1020" y="60" width="105" height="50" as="geometry" />
        </mxCell>
        <mxCell id="25" value="" style="edgeStyle=none;endArrow=none;dashed=1" parent="1" source="ZABzDabRQoCFE8bYCM8C-120" edge="1">
          <mxGeometry x="727.3350694444446" y="165" width="100" height="100" as="geometry">
            <mxPoint x="952.2588734567901" y="110" as="sourcePoint" />
            <mxPoint x="1073" y="1150" as="targetPoint" />
            <Array as="points" />
          </mxGeometry>
        </mxCell>
        <mxCell id="30" value="Service B" style="shadow=1;fillColor=#dae8fc;strokeColor=#6c8ebf;" parent="1" vertex="1">
          <mxGeometry x="1152" y="60" width="105" height="50" as="geometry" />
        </mxCell>
        <mxCell id="50" value="" style="edgeStyle=none;endArrow=none;dashed=1" parent="1" source="30" edge="1">
          <mxGeometry x="956.5711805555559" y="205" width="100" height="100" as="geometry">
            <mxPoint x="1181.7361111111113" y="150" as="sourcePoint" />
            <mxPoint x="1210" y="1150" as="targetPoint" />
          </mxGeometry>
        </mxCell>
        <mxCell id="52" value="" style="edgeStyle=none;endArrow=none;dashed=1" parent="1" edge="1">
          <mxGeometry x="376.5711805555559" y="339.6971450617284" width="100" height="100" as="geometry">
            <mxPoint x="348" y="1140" as="sourcePoint" />
            <mxPoint x="347.5" y="464.16666666666674" as="targetPoint" />
          </mxGeometry>
        </mxCell>
        <mxCell id="55" value="Kafka" style="shadow=1;fillColor=#fff2cc;strokeColor=#d6b656;" parent="1" vertex="1">
          <mxGeometry x="1400" y="60.00333333333339" width="105" height="50" as="geometry" />
        </mxCell>
        <mxCell id="64" value="Async Services" style="shadow=1;fillColor=#ffe6cc;strokeColor=#d79b00;" parent="1" vertex="1">
          <mxGeometry x="1572.5" y="60" width="105" height="50" as="geometry" />
        </mxCell>
        <mxCell id="65" value="" style="edgeStyle=none;endArrow=none;dashed=1" parent="1" source="ZABzDabRQoCFE8bYCM8C-155" edge="1">
          <mxGeometry x="1174.0711805555559" y="210" width="100" height="100" as="geometry">
            <mxPoint x="1372.5" y="115" as="sourcePoint" />
            <mxPoint x="1625" y="1150" as="targetPoint" />
          </mxGeometry>
        </mxCell>
        <mxCell id="71" value="Request" style="rounded=1;fontStyle=1;fillColor=#FFD966;strokeColor=none" parent="1" vertex="1">
          <mxGeometry x="-40" y="140" width="150" height="30" as="geometry" />
        </mxCell>
        <mxCell id="ZABzDabRQoCFE8bYCM8C-89" value="Async Services" style="shadow=1;fillColor=#d5e8d4;strokeColor=#82b366;" vertex="1" parent="1">
          <mxGeometry x="1560" y="50" width="105" height="50" as="geometry" />
        </mxCell>
        <mxCell id="ZABzDabRQoCFE8bYCM8C-90" value="Async Services" style="shadow=1;fillColor=#dae8fc;strokeColor=#6c8ebf;" vertex="1" parent="1">
          <mxGeometry x="1550" y="40" width="110" height="50" as="geometry" />
        </mxCell>
        <mxCell id="ZABzDabRQoCFE8bYCM8C-91" value="" style="edgeStyle=none;verticalLabelPosition=top;verticalAlign=bottom;entryX=0.25;entryY=0;entryDx=0;entryDy=0;" edge="1" parent="1" target="17">
          <mxGeometry width="100" height="100" as="geometry">
            <mxPoint x="352.5" y="193.5" as="sourcePoint" />
            <mxPoint x="509.78" y="181.38999999999987" as="targetPoint" />
            <mxPoint x="18" y="-23" as="offset" />
            <Array as="points">
              <mxPoint x="430" y="192" />
            </Array>
          </mxGeometry>
        </mxCell>
        <mxCell id="ZABzDabRQoCFE8bYCM8C-94" style="edgeStyle=none;curved=1;rounded=0;orthogonalLoop=1;jettySize=auto;html=1;entryX=1.2;entryY=0.065;entryDx=0;entryDy=0;fontSize=12;startSize=8;endSize=8;entryPerimeter=0;" edge="1" parent="1" source="ZABzDabRQoCFE8bYCM8C-93" target="6">
          <mxGeometry relative="1" as="geometry">
            <Array as="points" />
          </mxGeometry>
        </mxCell>
        <mxCell id="ZABzDabRQoCFE8bYCM8C-95" value="&lt;font style=&quot;font-size: 11px;&quot;&gt;Identification information added&lt;/font&gt;" style="edgeLabel;html=1;align=center;verticalAlign=middle;resizable=0;points=[];fontSize=16;" vertex="1" connectable="0" parent="ZABzDabRQoCFE8bYCM8C-94">
          <mxGeometry x="0.0031" y="-1" relative="1" as="geometry">
            <mxPoint x="89" y="-9" as="offset" />
          </mxGeometry>
        </mxCell>
        <mxCell id="ZABzDabRQoCFE8bYCM8C-97" value="Target Service" style="shadow=1;fillColor=#dae8fc;strokeColor=#6c8ebf;" vertex="1" parent="1">
          <mxGeometry x="1280" y="60" width="105" height="50" as="geometry" />
        </mxCell>
        <mxCell id="ZABzDabRQoCFE8bYCM8C-98" value="Response" style="rounded=1;fontStyle=1;fillColor=#FFD966;strokeColor=none" vertex="1" parent="1">
          <mxGeometry x="-50" y="730" width="150" height="30" as="geometry" />
        </mxCell>
        <mxCell id="2" value="" style="fillColor=#CC4125;strokeColor=#660000" parent="1" vertex="1">
          <mxGeometry x="200" y="150" width="10" height="1050" as="geometry" />
        </mxCell>
        <mxCell id="ZABzDabRQoCFE8bYCM8C-100" value="Auth/Rights" style="shadow=1;fillColor=#f8cecc;strokeColor=#b85450;" vertex="1" parent="1">
          <mxGeometry x="600.0039506172839" y="59.99999999999997" width="105" height="50" as="geometry" />
        </mxCell>
        <mxCell id="ZABzDabRQoCFE8bYCM8C-101" value="" style="edgeStyle=none;endArrow=none;dashed=1" edge="1" parent="1" source="ZABzDabRQoCFE8bYCM8C-132">
          <mxGeometry x="727.3350694444446" y="165" width="100" height="100" as="geometry">
            <mxPoint x="1332" y="110" as="sourcePoint" />
            <mxPoint x="1332" y="1150" as="targetPoint" />
            <Array as="points" />
          </mxGeometry>
        </mxCell>
        <mxCell id="ZABzDabRQoCFE8bYCM8C-102" value="" style="edgeStyle=none;endArrow=none;dashed=1" edge="1" parent="1" source="ZABzDabRQoCFE8bYCM8C-153">
          <mxGeometry x="727.3350694444446" y="165" width="100" height="100" as="geometry">
            <mxPoint x="1452" y="110" as="sourcePoint" />
            <mxPoint x="1455" y="1150" as="targetPoint" />
            <Array as="points" />
          </mxGeometry>
        </mxCell>
        <mxCell id="ZABzDabRQoCFE8bYCM8C-103" value="" style="edgeStyle=none;endArrow=none;dashed=1" edge="1" parent="1">
          <mxGeometry x="614.4878472222224" y="174.99999999999997" width="100" height="100" as="geometry">
            <mxPoint x="652" y="110" as="sourcePoint" />
            <mxPoint x="652" y="1190" as="targetPoint" />
          </mxGeometry>
        </mxCell>
        <mxCell id="ZABzDabRQoCFE8bYCM8C-93" value="Request:{&#xa;    header:&#xa;    content:&#xa;    context: {&#xa;        identification info (&#xa;                uuid,&#xa;                accountid, (if exists)&#xa;                workspace, (if exists)&#xa;                ...&#xa;            )&#xa;    }     &#xa;} " style="shape=note;align=left" vertex="1" parent="1">
          <mxGeometry x="390" y="260" width="190" height="190" as="geometry" />
        </mxCell>
        <mxCell id="ZABzDabRQoCFE8bYCM8C-106" value="Response" style="edgeStyle=none;verticalLabelPosition=top;verticalAlign=bottom;dashed=1;startArrow=classic;startFill=1;endArrow=none;endFill=0;entryX=0;entryY=1;entryDx=0;entryDy=0;exitX=1;exitY=0.987;exitDx=0;exitDy=0;exitPerimeter=0;" edge="1" parent="1" target="ZABzDabRQoCFE8bYCM8C-107" source="6">
          <mxGeometry width="100" height="100" as="geometry">
            <mxPoint x="353" y="700" as="sourcePoint" />
            <mxPoint x="510.5" y="509.61" as="targetPoint" />
            <mxPoint x="135" y="-10" as="offset" />
          </mxGeometry>
        </mxCell>
        <mxCell id="ZABzDabRQoCFE8bYCM8C-108" value="" style="edgeStyle=none;verticalLabelPosition=top;verticalAlign=bottom;entryX=0.25;entryY=0;entryDx=0;entryDy=0;" edge="1" parent="1" target="ZABzDabRQoCFE8bYCM8C-107">
          <mxGeometry width="100" height="100" as="geometry">
            <mxPoint x="353" y="481.11" as="sourcePoint" />
            <mxPoint x="510.28" y="468.9999999999999" as="targetPoint" />
            <mxPoint x="18" y="-23" as="offset" />
          </mxGeometry>
        </mxCell>
        <mxCell id="ZABzDabRQoCFE8bYCM8C-114" value="&lt;font style=&quot;font-size: 12px;&quot;&gt;Redirect request to target platform&lt;/font&gt;" style="edgeLabel;html=1;align=center;verticalAlign=middle;resizable=0;points=[];fontSize=16;" vertex="1" connectable="0" parent="ZABzDabRQoCFE8bYCM8C-108">
          <mxGeometry relative="1" as="geometry">
            <mxPoint x="133" y="-21" as="offset" />
          </mxGeometry>
        </mxCell>
        <mxCell id="ZABzDabRQoCFE8bYCM8C-109" value="" style="edgeStyle=none;endArrow=none;dashed=1" edge="1" parent="1" source="22" target="ZABzDabRQoCFE8bYCM8C-107">
          <mxGeometry x="614.4878472222224" y="174.99999999999997" width="100" height="100" as="geometry">
            <mxPoint x="923" y="110" as="sourcePoint" />
            <mxPoint x="923" y="800" as="targetPoint" />
          </mxGeometry>
        </mxCell>
        <mxCell id="ZABzDabRQoCFE8bYCM8C-107" value="" style="fillColor=#CC4125;strokeColor=#660000" vertex="1" parent="1">
          <mxGeometry x="917.64" y="480" width="9.72" height="670" as="geometry" />
        </mxCell>
        <mxCell id="ZABzDabRQoCFE8bYCM8C-110" value="Request Rights/Authorization" style="edgeStyle=none;verticalLabelPosition=top;verticalAlign=bottom;dashed=1;startArrow=none;startFill=0;endArrow=classic;endFill=1;exitX=0.75;exitY=1;exitDx=0;exitDy=0;entryX=-0.22;entryY=0.081;entryDx=0;entryDy=0;entryPerimeter=0;" edge="1" parent="1" target="ZABzDabRQoCFE8bYCM8C-107" source="ZABzDabRQoCFE8bYCM8C-111">
          <mxGeometry width="100" height="100" as="geometry">
            <mxPoint x="917.6399999999999" y="533.0000000000016" as="sourcePoint" />
            <mxPoint x="910" y="540" as="targetPoint" />
            <mxPoint x="3" y="-11" as="offset" />
          </mxGeometry>
        </mxCell>
        <mxCell id="ZABzDabRQoCFE8bYCM8C-111" value="" style="fillColor=#CC4125;strokeColor=#660000" vertex="1" parent="1">
          <mxGeometry x="647.28" y="498" width="10" height="37.61" as="geometry" />
        </mxCell>
        <mxCell id="ZABzDabRQoCFE8bYCM8C-112" value="" style="edgeStyle=none;verticalLabelPosition=top;verticalAlign=bottom;exitX=-0.117;exitY=0.028;exitDx=0;exitDy=0;exitPerimeter=0;entryX=0.75;entryY=0;entryDx=0;entryDy=0;" edge="1" parent="1" target="ZABzDabRQoCFE8bYCM8C-111" source="ZABzDabRQoCFE8bYCM8C-107">
          <mxGeometry width="100" height="100" as="geometry">
            <mxPoint x="490" y="499.11" as="sourcePoint" />
            <mxPoint x="690" y="500" as="targetPoint" />
            <mxPoint x="18" y="-23" as="offset" />
          </mxGeometry>
        </mxCell>
        <mxCell id="ZABzDabRQoCFE8bYCM8C-118" style="edgeStyle=none;curved=1;rounded=0;orthogonalLoop=1;jettySize=auto;html=1;entryX=-0.117;entryY=0.101;entryDx=0;entryDy=0;fontSize=12;startSize=8;endSize=8;entryPerimeter=0;" edge="1" parent="1" source="ZABzDabRQoCFE8bYCM8C-113" target="ZABzDabRQoCFE8bYCM8C-107">
          <mxGeometry relative="1" as="geometry" />
        </mxCell>
        <mxCell id="ZABzDabRQoCFE8bYCM8C-113" value="Request:{&#xa;    header:&#xa;    content:&#xa;    context: {&#xa;        identification_info (&#xa;                uuid,&#xa;                accountid, (if exists)&#xa;                workspace, (if exists)&#xa;                ...&#xa;            ),&#xa;        authorization_info:{ &#xa;            rights&#xa;            roles&#xa;            ...&#xa;        }&#xa;    }     &#xa;} " style="shape=note;align=left" vertex="1" parent="1">
          <mxGeometry x="670" y="570" width="190" height="290" as="geometry" />
        </mxCell>
        <mxCell id="ZABzDabRQoCFE8bYCM8C-116" value="Identificate&#xa;request&#xa;Session" style="rounded=1;fontStyle=1;fillColor=#FFD966;strokeColor=none" vertex="1" parent="1">
          <mxGeometry x="530" y="170" width="80" height="50" as="geometry" />
        </mxCell>
        <mxCell id="ZABzDabRQoCFE8bYCM8C-117" value="Authorise&#xa;Rights" style="rounded=1;fontStyle=1;fillColor=#FFD966;strokeColor=none" vertex="1" parent="1">
          <mxGeometry x="550" y="491.81" width="80" height="50" as="geometry" />
        </mxCell>
        <mxCell id="ZABzDabRQoCFE8bYCM8C-119" value="&lt;font style=&quot;font-size: 11px;&quot;&gt;Auth info added&lt;/font&gt;" style="text;html=1;align=center;verticalAlign=middle;resizable=0;points=[];autosize=1;strokeColor=none;fillColor=none;fontSize=16;" vertex="1" parent="1">
          <mxGeometry x="715" y="541.81" width="100" height="30" as="geometry" />
        </mxCell>
        <mxCell id="ZABzDabRQoCFE8bYCM8C-120" value="" style="fillColor=#CC4125;strokeColor=#660000" vertex="1" parent="1">
          <mxGeometry x="1067.5" y="603.81" width="10" height="37.61" as="geometry" />
        </mxCell>
        <mxCell id="ZABzDabRQoCFE8bYCM8C-122" value="" style="edgeStyle=none;verticalLabelPosition=top;verticalAlign=bottom;entryX=0;entryY=0;entryDx=0;entryDy=0;" edge="1" parent="1" target="ZABzDabRQoCFE8bYCM8C-120">
          <mxGeometry width="100" height="100" as="geometry">
            <mxPoint x="927.36" y="605.31" as="sourcePoint" />
            <mxPoint x="1086.8600000000001" y="603.81" as="targetPoint" />
            <mxPoint x="18" y="-23" as="offset" />
            <Array as="points">
              <mxPoint x="1004.86" y="603.81" />
            </Array>
          </mxGeometry>
        </mxCell>
        <mxCell id="ZABzDabRQoCFE8bYCM8C-123" value="Get A data" style="edgeStyle=none;verticalLabelPosition=top;verticalAlign=bottom;dashed=1;startArrow=classic;startFill=1;endArrow=none;endFill=0;entryX=0.5;entryY=1;entryDx=0;entryDy=0;exitX=0.809;exitY=0.15;exitDx=0;exitDy=0;exitPerimeter=0;" edge="1" parent="1" target="ZABzDabRQoCFE8bYCM8C-120">
          <mxGeometry width="100" height="100" as="geometry">
            <mxPoint x="925.5034799999999" y="642.5" as="sourcePoint" />
            <mxPoint x="1162" y="482" as="targetPoint" />
            <mxPoint x="3" y="-11" as="offset" />
          </mxGeometry>
        </mxCell>
        <mxCell id="ZABzDabRQoCFE8bYCM8C-124" value="" style="fillColor=#CC4125;strokeColor=#660000" vertex="1" parent="1">
          <mxGeometry x="1201.5" y="672" width="10" height="37.61" as="geometry" />
        </mxCell>
        <mxCell id="ZABzDabRQoCFE8bYCM8C-125" value="" style="edgeStyle=none;verticalLabelPosition=top;verticalAlign=bottom;entryX=0;entryY=0;entryDx=0;entryDy=0;exitX=0.912;exitY=0.193;exitDx=0;exitDy=0;exitPerimeter=0;" edge="1" parent="1" target="ZABzDabRQoCFE8bYCM8C-124">
          <mxGeometry width="100" height="100" as="geometry">
            <mxPoint x="926.5046399999997" y="671.31" as="sourcePoint" />
            <mxPoint x="1220.8600000000001" y="672" as="targetPoint" />
            <mxPoint x="18" y="-23" as="offset" />
            <Array as="points">
              <mxPoint x="1138.8600000000001" y="672" />
            </Array>
          </mxGeometry>
        </mxCell>
        <mxCell id="ZABzDabRQoCFE8bYCM8C-126" value="Get B data" style="edgeStyle=none;verticalLabelPosition=top;verticalAlign=bottom;dashed=1;startArrow=classic;startFill=1;endArrow=none;endFill=0;entryX=0.5;entryY=1;entryDx=0;entryDy=0;exitX=1;exitY=0.25;exitDx=0;exitDy=0;" edge="1" parent="1" target="ZABzDabRQoCFE8bYCM8C-124">
          <mxGeometry width="100" height="100" as="geometry">
            <mxPoint x="927.3599999999997" y="709.4999999999884" as="sourcePoint" />
            <mxPoint x="1296" y="550.19" as="targetPoint" />
            <mxPoint x="3" y="-11" as="offset" />
          </mxGeometry>
        </mxCell>
        <mxCell id="ZABzDabRQoCFE8bYCM8C-128" value="" style="edgeStyle=none;endArrow=none;dashed=1;" edge="1" parent="1" source="24">
          <mxGeometry x="727.3350694444446" y="165" width="100" height="100" as="geometry">
            <mxPoint x="1073" y="110" as="sourcePoint" />
            <mxPoint x="1073" y="600" as="targetPoint" />
            <Array as="points" />
          </mxGeometry>
        </mxCell>
        <mxCell id="ZABzDabRQoCFE8bYCM8C-169" style="edgeStyle=none;curved=1;rounded=0;orthogonalLoop=1;jettySize=auto;html=1;entryX=-0.014;entryY=0.573;entryDx=0;entryDy=0;entryPerimeter=0;fontSize=12;startSize=8;endSize=8;" edge="1" parent="1" source="ZABzDabRQoCFE8bYCM8C-127" target="ZABzDabRQoCFE8bYCM8C-107">
          <mxGeometry relative="1" as="geometry" />
        </mxCell>
        <mxCell id="ZABzDabRQoCFE8bYCM8C-127" value="Check rights&#xa;before&#xa;reach services" style="rounded=1;fontStyle=1;fillColor=#FFD966;strokeColor=none" vertex="1" parent="1">
          <mxGeometry x="790" y="900" width="125" height="70" as="geometry" />
        </mxCell>
        <mxCell id="ZABzDabRQoCFE8bYCM8C-131" style="edgeStyle=none;curved=1;rounded=0;orthogonalLoop=1;jettySize=auto;html=1;entryX=1.014;entryY=0.368;entryDx=0;entryDy=0;entryPerimeter=0;fontSize=12;startSize=8;endSize=8;" edge="1" parent="1" source="ZABzDabRQoCFE8bYCM8C-130" target="ZABzDabRQoCFE8bYCM8C-107">
          <mxGeometry relative="1" as="geometry" />
        </mxCell>
        <mxCell id="ZABzDabRQoCFE8bYCM8C-130" value="Request:{&#xa;    header:&#xa;    content:&#xa;    context: {&#xa;         ..., &#xa;        data_service_A, &#xa;        data_service_B  &#xa;} " style="shape=note;align=left" vertex="1" parent="1">
          <mxGeometry x="977.5" y="730" width="190" height="120" as="geometry" />
        </mxCell>
        <mxCell id="ZABzDabRQoCFE8bYCM8C-133" value="" style="edgeStyle=none;endArrow=none;dashed=1" edge="1" parent="1" target="ZABzDabRQoCFE8bYCM8C-132">
          <mxGeometry x="727.3350694444446" y="165" width="100" height="100" as="geometry">
            <mxPoint x="1332" y="110" as="sourcePoint" />
            <mxPoint x="1332" y="1150" as="targetPoint" />
            <Array as="points" />
          </mxGeometry>
        </mxCell>
        <mxCell id="ZABzDabRQoCFE8bYCM8C-132" value="" style="fillColor=#008a00;strokeColor=#005700;fontColor=#ffffff;" vertex="1" parent="1">
          <mxGeometry x="1327.5" y="880" width="10" height="150" as="geometry" />
        </mxCell>
        <mxCell id="ZABzDabRQoCFE8bYCM8C-135" value="" style="edgeStyle=none;verticalLabelPosition=top;verticalAlign=bottom;entryX=0;entryY=0;entryDx=0;entryDy=0;exitX=0.912;exitY=0.193;exitDx=0;exitDy=0;exitPerimeter=0;" edge="1" parent="1" target="ZABzDabRQoCFE8bYCM8C-132">
          <mxGeometry width="100" height="100" as="geometry">
            <mxPoint x="927.3646399999997" y="880" as="sourcePoint" />
            <mxPoint x="1202.86" y="880.69" as="targetPoint" />
            <mxPoint x="18" y="-23" as="offset" />
            <Array as="points">
              <mxPoint x="1139.72" y="880.69" />
            </Array>
          </mxGeometry>
        </mxCell>
        <mxCell id="ZABzDabRQoCFE8bYCM8C-137" value="&lt;font style=&quot;font-size: 12px;&quot;&gt;Do action on Target Service&lt;/font&gt;" style="edgeLabel;html=1;align=center;verticalAlign=middle;resizable=0;points=[];fontSize=16;" vertex="1" connectable="0" parent="ZABzDabRQoCFE8bYCM8C-135">
          <mxGeometry relative="1" as="geometry">
            <mxPoint x="-2" y="19" as="offset" />
          </mxGeometry>
        </mxCell>
        <mxCell id="ZABzDabRQoCFE8bYCM8C-136" value="Response" style="edgeStyle=none;verticalLabelPosition=top;verticalAlign=bottom;dashed=1;startArrow=classic;startFill=1;endArrow=none;endFill=0;entryX=0;entryY=1;entryDx=0;entryDy=0;exitX=1.22;exitY=0.817;exitDx=0;exitDy=0;exitPerimeter=0;" edge="1" parent="1" source="ZABzDabRQoCFE8bYCM8C-107" target="ZABzDabRQoCFE8bYCM8C-132">
          <mxGeometry width="100" height="100" as="geometry">
            <mxPoint x="937.3599999999997" y="719.4999999999884" as="sourcePoint" />
            <mxPoint x="1217" y="720" as="targetPoint" />
            <mxPoint x="2" y="-10" as="offset" />
          </mxGeometry>
        </mxCell>
        <mxCell id="ZABzDabRQoCFE8bYCM8C-138" value="" style="edgeStyle=none;verticalLabelPosition=top;verticalAlign=bottom;entryX=0;entryY=0;entryDx=0;entryDy=0;" edge="1" parent="1" target="ZABzDabRQoCFE8bYCM8C-140">
          <mxGeometry width="100" height="100" as="geometry">
            <mxPoint x="1340" y="940" as="sourcePoint" />
            <mxPoint x="1460" y="948" as="targetPoint" />
            <mxPoint x="18" y="-23" as="offset" />
            <Array as="points" />
          </mxGeometry>
        </mxCell>
        <mxCell id="ZABzDabRQoCFE8bYCM8C-142" value="&lt;font style=&quot;font-size: 12px;&quot;&gt;Publish events&lt;/font&gt;" style="edgeLabel;html=1;align=center;verticalAlign=middle;resizable=0;points=[];fontSize=16;" vertex="1" connectable="0" parent="ZABzDabRQoCFE8bYCM8C-138">
          <mxGeometry relative="1" as="geometry">
            <mxPoint y="-13" as="offset" />
          </mxGeometry>
        </mxCell>
        <mxCell id="ZABzDabRQoCFE8bYCM8C-141" value="" style="edgeStyle=none;endArrow=none;dashed=1" edge="1" parent="1" target="ZABzDabRQoCFE8bYCM8C-140">
          <mxGeometry x="727.3350694444446" y="165" width="100" height="100" as="geometry">
            <mxPoint x="1452" y="110" as="sourcePoint" />
            <mxPoint x="1460" y="1150" as="targetPoint" />
            <Array as="points" />
          </mxGeometry>
        </mxCell>
        <mxCell id="ZABzDabRQoCFE8bYCM8C-140" value="" style="fillColor=#1ba1e2;strokeColor=#006EAF;fontColor=#ffffff;" vertex="1" parent="1">
          <mxGeometry x="1450" y="940" width="10" height="37.61" as="geometry" />
        </mxCell>
        <mxCell id="ZABzDabRQoCFE8bYCM8C-143" value="" style="edgeStyle=none;verticalLabelPosition=top;verticalAlign=bottom;" edge="1" parent="1">
          <mxGeometry width="100" height="100" as="geometry">
            <mxPoint x="1460" y="950" as="sourcePoint" />
            <mxPoint x="1620" y="950" as="targetPoint" />
            <mxPoint x="18" y="-23" as="offset" />
            <Array as="points" />
          </mxGeometry>
        </mxCell>
        <mxCell id="ZABzDabRQoCFE8bYCM8C-144" value="&lt;span style=&quot;font-size: 12px;&quot;&gt;events subscriptions&lt;/span&gt;" style="edgeLabel;html=1;align=center;verticalAlign=middle;resizable=0;points=[];fontSize=16;" vertex="1" connectable="0" parent="ZABzDabRQoCFE8bYCM8C-143">
          <mxGeometry relative="1" as="geometry">
            <mxPoint y="-13" as="offset" />
          </mxGeometry>
        </mxCell>
        <mxCell id="ZABzDabRQoCFE8bYCM8C-146" value="" style="edgeStyle=none;endArrow=none;dashed=1" edge="1" parent="1" source="64" target="ZABzDabRQoCFE8bYCM8C-145">
          <mxGeometry x="1174.0711805555559" y="210" width="100" height="100" as="geometry">
            <mxPoint x="1625" y="110" as="sourcePoint" />
            <mxPoint x="1620" y="1140" as="targetPoint" />
          </mxGeometry>
        </mxCell>
        <mxCell id="ZABzDabRQoCFE8bYCM8C-145" value="" style="fillColor=#008a00;strokeColor=#005700;fontColor=#ffffff;" vertex="1" parent="1">
          <mxGeometry x="1620" y="950" width="10" height="37.61" as="geometry" />
        </mxCell>
        <mxCell id="ZABzDabRQoCFE8bYCM8C-148" style="edgeStyle=none;curved=1;rounded=0;orthogonalLoop=1;jettySize=auto;html=1;entryX=1;entryY=0.5;entryDx=0;entryDy=0;fontSize=12;startSize=8;endSize=8;" edge="1" parent="1" source="ZABzDabRQoCFE8bYCM8C-147" target="ZABzDabRQoCFE8bYCM8C-145">
          <mxGeometry relative="1" as="geometry" />
        </mxCell>
        <mxCell id="ZABzDabRQoCFE8bYCM8C-159" style="edgeStyle=none;curved=1;rounded=0;orthogonalLoop=1;jettySize=auto;html=1;entryX=1;entryY=0.5;entryDx=0;entryDy=0;fontSize=12;startSize=8;endSize=8;" edge="1" parent="1" source="ZABzDabRQoCFE8bYCM8C-147" target="ZABzDabRQoCFE8bYCM8C-155">
          <mxGeometry relative="1" as="geometry" />
        </mxCell>
        <mxCell id="ZABzDabRQoCFE8bYCM8C-147" value="Async actions" style="rounded=1;fontStyle=1;fillColor=#FFD966;strokeColor=none" vertex="1" parent="1">
          <mxGeometry x="1650" y="890" width="110" height="50" as="geometry" />
        </mxCell>
        <mxCell id="ZABzDabRQoCFE8bYCM8C-150" style="edgeStyle=none;curved=1;rounded=0;orthogonalLoop=1;jettySize=auto;html=1;entryX=0.9;entryY=0.186;entryDx=0;entryDy=0;entryPerimeter=0;fontSize=12;startSize=8;endSize=8;" edge="1" parent="1" source="ZABzDabRQoCFE8bYCM8C-149" target="ZABzDabRQoCFE8bYCM8C-132">
          <mxGeometry relative="1" as="geometry" />
        </mxCell>
        <mxCell id="ZABzDabRQoCFE8bYCM8C-149" value="Sync actions" style="rounded=1;fontStyle=1;fillColor=#FFD966;strokeColor=none" vertex="1" parent="1">
          <mxGeometry x="1340" y="810" width="110" height="50" as="geometry" />
        </mxCell>
        <mxCell id="ZABzDabRQoCFE8bYCM8C-151" value="" style="edgeStyle=none;verticalLabelPosition=top;verticalAlign=bottom;" edge="1" parent="1">
          <mxGeometry width="100" height="100" as="geometry">
            <mxPoint x="1460" y="1020" as="sourcePoint" />
            <mxPoint x="1620" y="1020" as="targetPoint" />
            <mxPoint x="18" y="-23" as="offset" />
            <Array as="points" />
          </mxGeometry>
        </mxCell>
        <mxCell id="ZABzDabRQoCFE8bYCM8C-152" value="&lt;font style=&quot;font-size: 12px;&quot;&gt;events subscriptions&lt;/font&gt;" style="edgeLabel;html=1;align=center;verticalAlign=middle;resizable=0;points=[];fontSize=16;" vertex="1" connectable="0" parent="ZABzDabRQoCFE8bYCM8C-151">
          <mxGeometry relative="1" as="geometry">
            <mxPoint y="-13" as="offset" />
          </mxGeometry>
        </mxCell>
        <mxCell id="ZABzDabRQoCFE8bYCM8C-154" value="" style="edgeStyle=none;endArrow=none;dashed=1" edge="1" parent="1" source="ZABzDabRQoCFE8bYCM8C-140" target="ZABzDabRQoCFE8bYCM8C-153">
          <mxGeometry x="727.3350694444446" y="165" width="100" height="100" as="geometry">
            <mxPoint x="1455" y="978" as="sourcePoint" />
            <mxPoint x="1455" y="1150" as="targetPoint" />
            <Array as="points" />
          </mxGeometry>
        </mxCell>
        <mxCell id="ZABzDabRQoCFE8bYCM8C-153" value="" style="fillColor=#1ba1e2;strokeColor=#006EAF;fontColor=#ffffff;" vertex="1" parent="1">
          <mxGeometry x="1450" y="1010" width="10" height="37.61" as="geometry" />
        </mxCell>
        <mxCell id="ZABzDabRQoCFE8bYCM8C-156" value="" style="edgeStyle=none;endArrow=none;dashed=1" edge="1" parent="1" source="ZABzDabRQoCFE8bYCM8C-145" target="ZABzDabRQoCFE8bYCM8C-155">
          <mxGeometry x="1174.0711805555559" y="210" width="100" height="100" as="geometry">
            <mxPoint x="1625" y="988" as="sourcePoint" />
            <mxPoint x="1625" y="1150" as="targetPoint" />
          </mxGeometry>
        </mxCell>
        <mxCell id="ZABzDabRQoCFE8bYCM8C-155" value="" style="fillColor=#008a00;strokeColor=#005700;fontColor=#ffffff;" vertex="1" parent="1">
          <mxGeometry x="1620" y="1010" width="10" height="37.61" as="geometry" />
        </mxCell>
        <mxCell id="ZABzDabRQoCFE8bYCM8C-157" value="" style="edgeStyle=none;verticalLabelPosition=top;verticalAlign=bottom;entryX=0;entryY=0;entryDx=0;entryDy=0;" edge="1" parent="1">
          <mxGeometry width="100" height="100" as="geometry">
            <mxPoint x="1337.5" y="1010" as="sourcePoint" />
            <mxPoint x="1447.5" y="1010" as="targetPoint" />
            <mxPoint x="18" y="-23" as="offset" />
            <Array as="points" />
          </mxGeometry>
        </mxCell>
        <mxCell id="ZABzDabRQoCFE8bYCM8C-158" value="&lt;font style=&quot;font-size: 12px;&quot;&gt;Publish events&lt;/font&gt;" style="edgeLabel;html=1;align=center;verticalAlign=middle;resizable=0;points=[];fontSize=16;" vertex="1" connectable="0" parent="ZABzDabRQoCFE8bYCM8C-157">
          <mxGeometry relative="1" as="geometry">
            <mxPoint y="-13" as="offset" />
          </mxGeometry>
        </mxCell>
        <mxCell id="ZABzDabRQoCFE8bYCM8C-160" value="Response:{&#xa;    ... &#xa;} " style="shape=note;align=left" vertex="1" parent="1">
          <mxGeometry x="1111.5" y="1060" width="190" height="120" as="geometry" />
        </mxCell>
        <mxCell id="ZABzDabRQoCFE8bYCM8C-162" value="Target Platform (Sourcing Engine,...)" style="text;html=1;align=center;verticalAlign=middle;resizable=0;points=[];autosize=1;strokeColor=none;fillColor=none;fontSize=16;" vertex="1" parent="1">
          <mxGeometry x="787.5" y="-10" width="280" height="30" as="geometry" />
        </mxCell>
        <mxCell id="ZABzDabRQoCFE8bYCM8C-164" value="LB+GW+Auth" style="text;html=1;align=center;verticalAlign=middle;resizable=0;points=[];autosize=1;strokeColor=none;fillColor=none;fontSize=16;" vertex="1" parent="1">
          <mxGeometry x="-40" width="120" height="30" as="geometry" />
        </mxCell>
        <mxCell id="ZABzDabRQoCFE8bYCM8C-166" style="edgeStyle=none;curved=1;rounded=0;orthogonalLoop=1;jettySize=auto;html=1;entryX=0.75;entryY=1;entryDx=0;entryDy=0;fontSize=12;startSize=8;endSize=8;" edge="1" parent="1" source="ZABzDabRQoCFE8bYCM8C-165" target="64">
          <mxGeometry relative="1" as="geometry" />
        </mxCell>
        <mxCell id="ZABzDabRQoCFE8bYCM8C-165" value="Same platform&#xa;or&#xa;other platforms" style="rounded=1;fontStyle=1;fillColor=#FFD966;strokeColor=none" vertex="1" parent="1">
          <mxGeometry x="1650" y="160" width="110" height="50" as="geometry" />
        </mxCell>
      </root>
    </mxGraphModel>
  </diagram>
  <diagram name="Copia de Page-1" id="Q57sF-amWRVs1Umb_zco">
    <mxGraphModel dx="1929" dy="1457" grid="1" gridSize="10" guides="1" tooltips="1" connect="1" arrows="1" fold="1" page="0" pageScale="1.5" pageWidth="826" pageHeight="1169" background="none" math="0" shadow="0">
      <root>
        <mxCell id="36wpAlq7-YLb4W76ybnT-0" />
        <mxCell id="36wpAlq7-YLb4W76ybnT-1" parent="36wpAlq7-YLb4W76ybnT-0" />
        <mxCell id="36wpAlq7-YLb4W76ybnT-2" value="" style="rounded=0;whiteSpace=wrap;html=1;fontSize=16;fillColor=#ffe6cc;strokeColor=#d79b00;" vertex="1" parent="36wpAlq7-YLb4W76ybnT-1">
          <mxGeometry x="780" y="-20" width="990" height="1220" as="geometry" />
        </mxCell>
        <mxCell id="36wpAlq7-YLb4W76ybnT-3" style="edgeStyle=none;curved=1;rounded=0;orthogonalLoop=1;jettySize=auto;html=1;entryX=0.037;entryY=0.159;entryDx=0;entryDy=0;entryPerimeter=0;fontSize=12;startSize=8;endSize=8;" edge="1" parent="36wpAlq7-YLb4W76ybnT-1" source="36wpAlq7-YLb4W76ybnT-65" target="36wpAlq7-YLb4W76ybnT-48">
          <mxGeometry relative="1" as="geometry" />
        </mxCell>
        <mxCell id="36wpAlq7-YLb4W76ybnT-4" style="edgeStyle=none;curved=1;rounded=0;orthogonalLoop=1;jettySize=auto;html=1;fontSize=12;startSize=8;endSize=8;entryX=0.037;entryY=0.036;entryDx=0;entryDy=0;entryPerimeter=0;" edge="1" parent="36wpAlq7-YLb4W76ybnT-1" source="36wpAlq7-YLb4W76ybnT-65" target="36wpAlq7-YLb4W76ybnT-48">
          <mxGeometry relative="1" as="geometry">
            <mxPoint x="910" y="670" as="targetPoint" />
          </mxGeometry>
        </mxCell>
        <mxCell id="36wpAlq7-YLb4W76ybnT-5" value="" style="rounded=0;whiteSpace=wrap;html=1;fontSize=16;fillColor=#dae8fc;strokeColor=#6c8ebf;" vertex="1" parent="36wpAlq7-YLb4W76ybnT-1">
          <mxGeometry x="-60" y="-20" width="820" height="1220" as="geometry" />
        </mxCell>
        <mxCell id="36wpAlq7-YLb4W76ybnT-6" value="" style="edgeStyle=none;endArrow=none;dashed=1;exitX=0.5;exitY=1;exitDx=0;exitDy=0;" edge="1" parent="36wpAlq7-YLb4W76ybnT-1">
          <mxGeometry x="614.4878472222224" y="174.99999999999997" width="100" height="100" as="geometry">
            <mxPoint x="514.7839506172841" y="110" as="sourcePoint" />
            <mxPoint x="514" y="1200" as="targetPoint" />
          </mxGeometry>
        </mxCell>
        <mxCell id="36wpAlq7-YLb4W76ybnT-7" value="" style="edgeStyle=elbowEdgeStyle;elbow=horizontal;endArrow=none;dashed=1" edge="1" parent="36wpAlq7-YLb4W76ybnT-1">
          <mxGeometry x="230.00000000000003" y="310" width="100" height="100" as="geometry">
            <mxPoint x="205" y="110" as="sourcePoint" />
            <mxPoint x="205" y="810" as="targetPoint" />
          </mxGeometry>
        </mxCell>
        <mxCell id="36wpAlq7-YLb4W76ybnT-8" value="" style="edgeStyle=none;verticalLabelPosition=top;verticalAlign=bottom;labelPosition=left;align=right" edge="1" parent="36wpAlq7-YLb4W76ybnT-1">
          <mxGeometry width="100" height="100" as="geometry">
            <mxPoint x="110" y="149.5" as="sourcePoint" />
            <mxPoint x="200" y="149.5" as="targetPoint" />
            <mxPoint x="-25" y="-29" as="offset" />
          </mxGeometry>
        </mxCell>
        <mxCell id="36wpAlq7-YLb4W76ybnT-9" value="Client" style="shadow=1;fillColor=#A2C4C9;strokeColor=none" vertex="1" parent="36wpAlq7-YLb4W76ybnT-1">
          <mxGeometry x="152.5" y="60" width="105" height="50" as="geometry" />
        </mxCell>
        <mxCell id="36wpAlq7-YLb4W76ybnT-10" value="" style="fillColor=#CC4125;strokeColor=#660000" vertex="1" parent="36wpAlq7-YLb4W76ybnT-1">
          <mxGeometry x="342.5" y="180" width="10" height="980" as="geometry" />
        </mxCell>
        <mxCell id="36wpAlq7-YLb4W76ybnT-11" value="GateWay" style="shadow=1;fillColor=#A2C4C9;strokeColor=none" vertex="1" parent="36wpAlq7-YLb4W76ybnT-1">
          <mxGeometry x="295" y="60" width="105" height="50" as="geometry" />
        </mxCell>
        <mxCell id="36wpAlq7-YLb4W76ybnT-12" value="" style="edgeStyle=none;endArrow=none;dashed=1" edge="1" parent="36wpAlq7-YLb4W76ybnT-1" source="36wpAlq7-YLb4W76ybnT-11">
          <mxGeometry x="272.3350694444445" y="165" width="100" height="100" as="geometry">
            <mxPoint x="347.2588734567901" y="110" as="sourcePoint" />
            <mxPoint x="348" y="800" as="targetPoint" />
          </mxGeometry>
        </mxCell>
        <mxCell id="36wpAlq7-YLb4W76ybnT-13" value="Request" style="edgeStyle=none;verticalLabelPosition=top;verticalAlign=bottom" edge="1" parent="36wpAlq7-YLb4W76ybnT-1">
          <mxGeometry width="100" height="100" as="geometry">
            <mxPoint x="210" y="179.5" as="sourcePoint" />
            <mxPoint x="340" y="179.5" as="targetPoint" />
            <mxPoint x="5" y="-9" as="offset" />
          </mxGeometry>
        </mxCell>
        <mxCell id="36wpAlq7-YLb4W76ybnT-14" value="" style="edgeStyle=none;verticalLabelPosition=top;verticalAlign=bottom;endArrow=none;startArrow=classic;dashed=1;entryX=0;entryY=1;entryDx=0;entryDy=0;exitX=1.05;exitY=0.964;exitDx=0;exitDy=0;exitPerimeter=0;" edge="1" parent="36wpAlq7-YLb4W76ybnT-1" source="36wpAlq7-YLb4W76ybnT-38" target="36wpAlq7-YLb4W76ybnT-10">
          <mxGeometry x="220" y="172.25887345679013" width="100" height="100" as="geometry">
            <mxPoint x="210" y="259.7588734567901" as="sourcePoint" />
            <mxPoint x="340" y="259.7588734567901" as="targetPoint" />
          </mxGeometry>
        </mxCell>
        <mxCell id="36wpAlq7-YLb4W76ybnT-15" value="&lt;font style=&quot;font-size: 11px;&quot;&gt;Response&lt;/font&gt;" style="edgeLabel;html=1;align=center;verticalAlign=middle;resizable=0;points=[];fontSize=16;" vertex="1" connectable="0" parent="36wpAlq7-YLb4W76ybnT-14">
          <mxGeometry relative="1" as="geometry">
            <mxPoint x="2" y="-19" as="offset" />
          </mxGeometry>
        </mxCell>
        <mxCell id="36wpAlq7-YLb4W76ybnT-16" value="" style="edgeStyle=none;verticalLabelPosition=top;verticalAlign=bottom;labelPosition=left;align=right;endArrow=none;startArrow=classic;dashed=1" edge="1" parent="36wpAlq7-YLb4W76ybnT-1">
          <mxGeometry x="110" y="179.75887345679013" width="100" height="100" as="geometry">
            <mxPoint x="100" y="739.9988734567901" as="sourcePoint" />
            <mxPoint x="190" y="739.9988734567901" as="targetPoint" />
          </mxGeometry>
        </mxCell>
        <mxCell id="36wpAlq7-YLb4W76ybnT-17" value="Identification / Session" style="edgeStyle=none;verticalLabelPosition=top;verticalAlign=bottom;dashed=1;startArrow=classic;startFill=1;endArrow=none;endFill=0;entryX=0;entryY=1;entryDx=0;entryDy=0;" edge="1" parent="36wpAlq7-YLb4W76ybnT-1" target="36wpAlq7-YLb4W76ybnT-19">
          <mxGeometry width="100" height="100" as="geometry">
            <mxPoint x="348" y="230" as="sourcePoint" />
            <mxPoint x="510" y="222" as="targetPoint" />
            <mxPoint x="3" y="-11" as="offset" />
          </mxGeometry>
        </mxCell>
        <mxCell id="36wpAlq7-YLb4W76ybnT-18" value="Authentication" style="shadow=1;fillColor=#f8cecc;strokeColor=#b85450;" vertex="1" parent="36wpAlq7-YLb4W76ybnT-1">
          <mxGeometry x="462.2839506172839" y="59.99999999999997" width="105" height="50" as="geometry" />
        </mxCell>
        <mxCell id="36wpAlq7-YLb4W76ybnT-19" value="" style="fillColor=#CC4125;strokeColor=#660000" vertex="1" parent="36wpAlq7-YLb4W76ybnT-1">
          <mxGeometry x="509.78" y="192.39" width="10" height="37.61" as="geometry" />
        </mxCell>
        <mxCell id="36wpAlq7-YLb4W76ybnT-20" value="GW/BFF&#xa;(In the platform)" style="shadow=1;fillColor=#dae8fc;strokeColor=#6c8ebf;" vertex="1" parent="36wpAlq7-YLb4W76ybnT-1">
          <mxGeometry x="870" y="60" width="105" height="50" as="geometry" />
        </mxCell>
        <mxCell id="36wpAlq7-YLb4W76ybnT-21" value="" style="edgeStyle=none;endArrow=none;dashed=1" edge="1" parent="36wpAlq7-YLb4W76ybnT-1" source="36wpAlq7-YLb4W76ybnT-48">
          <mxGeometry x="614.4878472222224" y="174.99999999999997" width="100" height="100" as="geometry">
            <mxPoint x="674.6527777777778" y="110" as="sourcePoint" />
            <mxPoint x="920" y="1181" as="targetPoint" />
          </mxGeometry>
        </mxCell>
        <mxCell id="36wpAlq7-YLb4W76ybnT-22" value="Service A" style="shadow=1;fillColor=#dae8fc;strokeColor=#6c8ebf;" vertex="1" parent="36wpAlq7-YLb4W76ybnT-1">
          <mxGeometry x="1020" y="60" width="105" height="50" as="geometry" />
        </mxCell>
        <mxCell id="36wpAlq7-YLb4W76ybnT-23" value="" style="edgeStyle=none;endArrow=none;dashed=1" edge="1" parent="36wpAlq7-YLb4W76ybnT-1" source="36wpAlq7-YLb4W76ybnT-57">
          <mxGeometry x="727.3350694444446" y="165" width="100" height="100" as="geometry">
            <mxPoint x="952.2588734567901" y="110" as="sourcePoint" />
            <mxPoint x="1073" y="1150" as="targetPoint" />
            <Array as="points" />
          </mxGeometry>
        </mxCell>
        <mxCell id="36wpAlq7-YLb4W76ybnT-24" value="Service B" style="shadow=1;fillColor=#dae8fc;strokeColor=#6c8ebf;" vertex="1" parent="36wpAlq7-YLb4W76ybnT-1">
          <mxGeometry x="1152" y="60" width="105" height="50" as="geometry" />
        </mxCell>
        <mxCell id="36wpAlq7-YLb4W76ybnT-25" value="" style="edgeStyle=none;endArrow=none;dashed=1" edge="1" parent="36wpAlq7-YLb4W76ybnT-1" source="36wpAlq7-YLb4W76ybnT-24">
          <mxGeometry x="956.5711805555559" y="205" width="100" height="100" as="geometry">
            <mxPoint x="1181.7361111111113" y="150" as="sourcePoint" />
            <mxPoint x="1210" y="1150" as="targetPoint" />
          </mxGeometry>
        </mxCell>
        <mxCell id="36wpAlq7-YLb4W76ybnT-26" value="" style="edgeStyle=none;endArrow=none;dashed=1" edge="1" parent="36wpAlq7-YLb4W76ybnT-1">
          <mxGeometry x="376.5711805555559" y="339.6971450617284" width="100" height="100" as="geometry">
            <mxPoint x="348" y="1140" as="sourcePoint" />
            <mxPoint x="347.5" y="464.16666666666674" as="targetPoint" />
          </mxGeometry>
        </mxCell>
        <mxCell id="36wpAlq7-YLb4W76ybnT-27" value="Kafka" style="shadow=1;fillColor=#fff2cc;strokeColor=#d6b656;" vertex="1" parent="36wpAlq7-YLb4W76ybnT-1">
          <mxGeometry x="1400" y="60.00333333333339" width="105" height="50" as="geometry" />
        </mxCell>
        <mxCell id="36wpAlq7-YLb4W76ybnT-28" value="Async Services" style="shadow=1;fillColor=#ffe6cc;strokeColor=#d79b00;" vertex="1" parent="36wpAlq7-YLb4W76ybnT-1">
          <mxGeometry x="1572.5" y="60" width="105" height="50" as="geometry" />
        </mxCell>
        <mxCell id="36wpAlq7-YLb4W76ybnT-29" value="" style="edgeStyle=none;endArrow=none;dashed=1" edge="1" parent="36wpAlq7-YLb4W76ybnT-1" source="36wpAlq7-YLb4W76ybnT-91">
          <mxGeometry x="1174.0711805555559" y="210" width="100" height="100" as="geometry">
            <mxPoint x="1372.5" y="115" as="sourcePoint" />
            <mxPoint x="1625" y="1150" as="targetPoint" />
          </mxGeometry>
        </mxCell>
        <mxCell id="36wpAlq7-YLb4W76ybnT-30" value="Request" style="rounded=1;fontStyle=1;fillColor=#FFD966;strokeColor=none" vertex="1" parent="36wpAlq7-YLb4W76ybnT-1">
          <mxGeometry x="-40" y="140" width="150" height="30" as="geometry" />
        </mxCell>
        <mxCell id="36wpAlq7-YLb4W76ybnT-31" value="Async Services" style="shadow=1;fillColor=#d5e8d4;strokeColor=#82b366;" vertex="1" parent="36wpAlq7-YLb4W76ybnT-1">
          <mxGeometry x="1560" y="50" width="105" height="50" as="geometry" />
        </mxCell>
        <mxCell id="36wpAlq7-YLb4W76ybnT-32" value="Async Services" style="shadow=1;fillColor=#dae8fc;strokeColor=#6c8ebf;" vertex="1" parent="36wpAlq7-YLb4W76ybnT-1">
          <mxGeometry x="1550" y="40" width="110" height="50" as="geometry" />
        </mxCell>
        <mxCell id="36wpAlq7-YLb4W76ybnT-33" value="" style="edgeStyle=none;verticalLabelPosition=top;verticalAlign=bottom;entryX=0.25;entryY=0;entryDx=0;entryDy=0;" edge="1" parent="36wpAlq7-YLb4W76ybnT-1" target="36wpAlq7-YLb4W76ybnT-19">
          <mxGeometry width="100" height="100" as="geometry">
            <mxPoint x="352.5" y="193.5" as="sourcePoint" />
            <mxPoint x="509.78" y="181.38999999999987" as="targetPoint" />
            <mxPoint x="18" y="-23" as="offset" />
            <Array as="points">
              <mxPoint x="430" y="192" />
            </Array>
          </mxGeometry>
        </mxCell>
        <mxCell id="36wpAlq7-YLb4W76ybnT-34" style="edgeStyle=none;curved=1;rounded=0;orthogonalLoop=1;jettySize=auto;html=1;entryX=1.2;entryY=0.065;entryDx=0;entryDy=0;fontSize=12;startSize=8;endSize=8;entryPerimeter=0;" edge="1" parent="36wpAlq7-YLb4W76ybnT-1" source="36wpAlq7-YLb4W76ybnT-43" target="36wpAlq7-YLb4W76ybnT-10">
          <mxGeometry relative="1" as="geometry">
            <Array as="points" />
          </mxGeometry>
        </mxCell>
        <mxCell id="36wpAlq7-YLb4W76ybnT-35" value="&lt;font style=&quot;font-size: 11px;&quot;&gt;Identification information added&lt;/font&gt;" style="edgeLabel;html=1;align=center;verticalAlign=middle;resizable=0;points=[];fontSize=16;" vertex="1" connectable="0" parent="36wpAlq7-YLb4W76ybnT-34">
          <mxGeometry x="0.0031" y="-1" relative="1" as="geometry">
            <mxPoint x="89" y="-9" as="offset" />
          </mxGeometry>
        </mxCell>
        <mxCell id="36wpAlq7-YLb4W76ybnT-36" value="Target Service" style="shadow=1;fillColor=#dae8fc;strokeColor=#6c8ebf;" vertex="1" parent="36wpAlq7-YLb4W76ybnT-1">
          <mxGeometry x="1280" y="60" width="105" height="50" as="geometry" />
        </mxCell>
        <mxCell id="36wpAlq7-YLb4W76ybnT-37" value="Response" style="rounded=1;fontStyle=1;fillColor=#FFD966;strokeColor=none" vertex="1" parent="36wpAlq7-YLb4W76ybnT-1">
          <mxGeometry x="-50" y="730" width="150" height="30" as="geometry" />
        </mxCell>
        <mxCell id="36wpAlq7-YLb4W76ybnT-38" value="" style="fillColor=#CC4125;strokeColor=#660000" vertex="1" parent="36wpAlq7-YLb4W76ybnT-1">
          <mxGeometry x="200" y="150" width="10" height="1050" as="geometry" />
        </mxCell>
        <mxCell id="36wpAlq7-YLb4W76ybnT-39" value="Auth/Rights" style="shadow=1;fillColor=#f8cecc;strokeColor=#b85450;" vertex="1" parent="36wpAlq7-YLb4W76ybnT-1">
          <mxGeometry x="600.0039506172839" y="59.99999999999997" width="105" height="50" as="geometry" />
        </mxCell>
        <mxCell id="36wpAlq7-YLb4W76ybnT-40" value="" style="edgeStyle=none;endArrow=none;dashed=1" edge="1" parent="36wpAlq7-YLb4W76ybnT-1" source="36wpAlq7-YLb4W76ybnT-69">
          <mxGeometry x="727.3350694444446" y="165" width="100" height="100" as="geometry">
            <mxPoint x="1332" y="110" as="sourcePoint" />
            <mxPoint x="1332" y="1150" as="targetPoint" />
            <Array as="points" />
          </mxGeometry>
        </mxCell>
        <mxCell id="36wpAlq7-YLb4W76ybnT-41" value="" style="edgeStyle=none;endArrow=none;dashed=1" edge="1" parent="36wpAlq7-YLb4W76ybnT-1" source="36wpAlq7-YLb4W76ybnT-89">
          <mxGeometry x="727.3350694444446" y="165" width="100" height="100" as="geometry">
            <mxPoint x="1452" y="110" as="sourcePoint" />
            <mxPoint x="1455" y="1150" as="targetPoint" />
            <Array as="points" />
          </mxGeometry>
        </mxCell>
        <mxCell id="36wpAlq7-YLb4W76ybnT-42" value="" style="edgeStyle=none;endArrow=none;dashed=1" edge="1" parent="36wpAlq7-YLb4W76ybnT-1">
          <mxGeometry x="614.4878472222224" y="174.99999999999997" width="100" height="100" as="geometry">
            <mxPoint x="652" y="110" as="sourcePoint" />
            <mxPoint x="652" y="1190" as="targetPoint" />
          </mxGeometry>
        </mxCell>
        <mxCell id="36wpAlq7-YLb4W76ybnT-43" value="Request:{&#xa;    header:&#xa;    content:&#xa;    context: {&#xa;        identification info (&#xa;                uuid,&#xa;                accountid, (if exists)&#xa;                workspace, (if exists)&#xa;                ...&#xa;            )&#xa;    }     &#xa;} " style="shape=note;align=left" vertex="1" parent="36wpAlq7-YLb4W76ybnT-1">
          <mxGeometry x="390" y="260" width="190" height="190" as="geometry" />
        </mxCell>
        <mxCell id="36wpAlq7-YLb4W76ybnT-44" value="Response" style="edgeStyle=none;verticalLabelPosition=top;verticalAlign=bottom;dashed=1;startArrow=classic;startFill=1;endArrow=none;endFill=0;entryX=0;entryY=1;entryDx=0;entryDy=0;exitX=1;exitY=0.987;exitDx=0;exitDy=0;exitPerimeter=0;" edge="1" parent="36wpAlq7-YLb4W76ybnT-1" source="36wpAlq7-YLb4W76ybnT-10" target="36wpAlq7-YLb4W76ybnT-48">
          <mxGeometry width="100" height="100" as="geometry">
            <mxPoint x="353" y="700" as="sourcePoint" />
            <mxPoint x="510.5" y="509.61" as="targetPoint" />
            <mxPoint x="195" y="-9" as="offset" />
          </mxGeometry>
        </mxCell>
        <mxCell id="36wpAlq7-YLb4W76ybnT-45" value="" style="edgeStyle=none;verticalLabelPosition=top;verticalAlign=bottom;entryX=0.25;entryY=0;entryDx=0;entryDy=0;" edge="1" parent="36wpAlq7-YLb4W76ybnT-1" target="36wpAlq7-YLb4W76ybnT-48">
          <mxGeometry width="100" height="100" as="geometry">
            <mxPoint x="350" y="570" as="sourcePoint" />
            <mxPoint x="510.28" y="468.9999999999999" as="targetPoint" />
            <mxPoint x="18" y="-23" as="offset" />
          </mxGeometry>
        </mxCell>
        <mxCell id="36wpAlq7-YLb4W76ybnT-46" value="&lt;font style=&quot;font-size: 12px;&quot;&gt;Redirect request to target platform&lt;/font&gt;" style="edgeLabel;html=1;align=center;verticalAlign=middle;resizable=0;points=[];fontSize=16;" vertex="1" connectable="0" parent="36wpAlq7-YLb4W76ybnT-45">
          <mxGeometry relative="1" as="geometry">
            <mxPoint x="17" y="10" as="offset" />
          </mxGeometry>
        </mxCell>
        <mxCell id="36wpAlq7-YLb4W76ybnT-47" value="" style="edgeStyle=none;endArrow=none;dashed=1" edge="1" parent="36wpAlq7-YLb4W76ybnT-1" source="36wpAlq7-YLb4W76ybnT-20" target="36wpAlq7-YLb4W76ybnT-48">
          <mxGeometry x="614.4878472222224" y="174.99999999999997" width="100" height="100" as="geometry">
            <mxPoint x="923" y="110" as="sourcePoint" />
            <mxPoint x="923" y="800" as="targetPoint" />
          </mxGeometry>
        </mxCell>
        <mxCell id="36wpAlq7-YLb4W76ybnT-48" value="" style="fillColor=#CC4125;strokeColor=#660000" vertex="1" parent="36wpAlq7-YLb4W76ybnT-1">
          <mxGeometry x="917.64" y="570" width="9.72" height="580" as="geometry" />
        </mxCell>
        <mxCell id="36wpAlq7-YLb4W76ybnT-49" value="Request Rights/Authorization" style="edgeStyle=none;verticalLabelPosition=top;verticalAlign=bottom;dashed=1;startArrow=none;startFill=0;endArrow=classic;endFill=1;exitX=0.75;exitY=1;exitDx=0;exitDy=0;entryX=0.85;entryY=0.362;entryDx=0;entryDy=0;entryPerimeter=0;" edge="1" parent="36wpAlq7-YLb4W76ybnT-1" source="36wpAlq7-YLb4W76ybnT-50" target="36wpAlq7-YLb4W76ybnT-10">
          <mxGeometry width="100" height="100" as="geometry">
            <mxPoint x="917.6399999999999" y="533.0000000000016" as="sourcePoint" />
            <mxPoint x="910" y="540" as="targetPoint" />
            <mxPoint x="3" y="-11" as="offset" />
          </mxGeometry>
        </mxCell>
        <mxCell id="36wpAlq7-YLb4W76ybnT-50" value="" style="fillColor=#CC4125;strokeColor=#660000" vertex="1" parent="36wpAlq7-YLb4W76ybnT-1">
          <mxGeometry x="647.28" y="498" width="10" height="37.61" as="geometry" />
        </mxCell>
        <mxCell id="36wpAlq7-YLb4W76ybnT-51" value="" style="edgeStyle=none;verticalLabelPosition=top;verticalAlign=bottom;entryX=0.75;entryY=0;entryDx=0;entryDy=0;" edge="1" parent="36wpAlq7-YLb4W76ybnT-1" target="36wpAlq7-YLb4W76ybnT-50">
          <mxGeometry width="100" height="100" as="geometry">
            <mxPoint x="350" y="500" as="sourcePoint" />
            <mxPoint x="690" y="500" as="targetPoint" />
            <mxPoint x="18" y="-23" as="offset" />
          </mxGeometry>
        </mxCell>
        <mxCell id="36wpAlq7-YLb4W76ybnT-52" style="edgeStyle=none;curved=1;rounded=0;orthogonalLoop=1;jettySize=auto;html=1;fontSize=12;startSize=8;endSize=8;" edge="1" parent="36wpAlq7-YLb4W76ybnT-1" source="36wpAlq7-YLb4W76ybnT-53">
          <mxGeometry relative="1" as="geometry">
            <mxPoint x="350" y="550" as="targetPoint" />
          </mxGeometry>
        </mxCell>
        <mxCell id="36wpAlq7-YLb4W76ybnT-53" value="Request:{&#xa;    header:&#xa;    content:&#xa;    context: {&#xa;        identification_info (&#xa;                uuid,&#xa;                accountid, (if exists)&#xa;                workspace, (if exists)&#xa;                ...&#xa;            ),&#xa;        authorization_info:{ &#xa;            rights&#xa;            roles&#xa;            ...&#xa;        }&#xa;    }     &#xa;} " style="shape=note;align=left" vertex="1" parent="36wpAlq7-YLb4W76ybnT-1">
          <mxGeometry x="430" y="630" width="190" height="290" as="geometry" />
        </mxCell>
        <mxCell id="36wpAlq7-YLb4W76ybnT-54" value="Identificate&#xa;request&#xa;Session" style="rounded=1;fontStyle=1;fillColor=#FFD966;strokeColor=none" vertex="1" parent="36wpAlq7-YLb4W76ybnT-1">
          <mxGeometry x="530" y="170" width="80" height="50" as="geometry" />
        </mxCell>
        <mxCell id="36wpAlq7-YLb4W76ybnT-55" value="Authorise&#xa;Rights" style="rounded=1;fontStyle=1;fillColor=#FFD966;strokeColor=none" vertex="1" parent="36wpAlq7-YLb4W76ybnT-1">
          <mxGeometry x="670" y="491.81" width="80" height="50" as="geometry" />
        </mxCell>
        <mxCell id="36wpAlq7-YLb4W76ybnT-56" value="&lt;font style=&quot;font-size: 11px;&quot;&gt;Auth info added&lt;/font&gt;" style="text;html=1;align=center;verticalAlign=middle;resizable=0;points=[];autosize=1;strokeColor=none;fillColor=none;fontSize=16;" vertex="1" parent="36wpAlq7-YLb4W76ybnT-1">
          <mxGeometry x="462.28" y="607.61" width="100" height="30" as="geometry" />
        </mxCell>
        <mxCell id="36wpAlq7-YLb4W76ybnT-57" value="" style="fillColor=#CC4125;strokeColor=#660000" vertex="1" parent="36wpAlq7-YLb4W76ybnT-1">
          <mxGeometry x="1067.5" y="603.81" width="10" height="37.61" as="geometry" />
        </mxCell>
        <mxCell id="36wpAlq7-YLb4W76ybnT-58" value="" style="edgeStyle=none;verticalLabelPosition=top;verticalAlign=bottom;entryX=0;entryY=0;entryDx=0;entryDy=0;" edge="1" parent="36wpAlq7-YLb4W76ybnT-1" target="36wpAlq7-YLb4W76ybnT-57">
          <mxGeometry width="100" height="100" as="geometry">
            <mxPoint x="927.36" y="605.31" as="sourcePoint" />
            <mxPoint x="1086.8600000000001" y="603.81" as="targetPoint" />
            <mxPoint x="18" y="-23" as="offset" />
            <Array as="points">
              <mxPoint x="1004.86" y="603.81" />
            </Array>
          </mxGeometry>
        </mxCell>
        <mxCell id="36wpAlq7-YLb4W76ybnT-59" value="Get A data" style="edgeStyle=none;verticalLabelPosition=top;verticalAlign=bottom;dashed=1;startArrow=classic;startFill=1;endArrow=none;endFill=0;entryX=0.5;entryY=1;entryDx=0;entryDy=0;exitX=0.809;exitY=0.15;exitDx=0;exitDy=0;exitPerimeter=0;" edge="1" parent="36wpAlq7-YLb4W76ybnT-1" target="36wpAlq7-YLb4W76ybnT-57">
          <mxGeometry width="100" height="100" as="geometry">
            <mxPoint x="925.5034799999999" y="642.5" as="sourcePoint" />
            <mxPoint x="1162" y="482" as="targetPoint" />
            <mxPoint x="3" y="-11" as="offset" />
          </mxGeometry>
        </mxCell>
        <mxCell id="36wpAlq7-YLb4W76ybnT-60" value="" style="fillColor=#CC4125;strokeColor=#660000" vertex="1" parent="36wpAlq7-YLb4W76ybnT-1">
          <mxGeometry x="1201.5" y="672" width="10" height="37.61" as="geometry" />
        </mxCell>
        <mxCell id="36wpAlq7-YLb4W76ybnT-61" value="" style="edgeStyle=none;verticalLabelPosition=top;verticalAlign=bottom;entryX=0;entryY=0;entryDx=0;entryDy=0;exitX=0.912;exitY=0.193;exitDx=0;exitDy=0;exitPerimeter=0;" edge="1" parent="36wpAlq7-YLb4W76ybnT-1" target="36wpAlq7-YLb4W76ybnT-60">
          <mxGeometry width="100" height="100" as="geometry">
            <mxPoint x="926.5046399999997" y="671.31" as="sourcePoint" />
            <mxPoint x="1220.8600000000001" y="672" as="targetPoint" />
            <mxPoint x="18" y="-23" as="offset" />
            <Array as="points">
              <mxPoint x="1138.8600000000001" y="672" />
            </Array>
          </mxGeometry>
        </mxCell>
        <mxCell id="36wpAlq7-YLb4W76ybnT-62" value="Get B data" style="edgeStyle=none;verticalLabelPosition=top;verticalAlign=bottom;dashed=1;startArrow=classic;startFill=1;endArrow=none;endFill=0;entryX=0.5;entryY=1;entryDx=0;entryDy=0;exitX=1;exitY=0.25;exitDx=0;exitDy=0;" edge="1" parent="36wpAlq7-YLb4W76ybnT-1" target="36wpAlq7-YLb4W76ybnT-60">
          <mxGeometry width="100" height="100" as="geometry">
            <mxPoint x="927.3599999999997" y="709.4999999999884" as="sourcePoint" />
            <mxPoint x="1296" y="550.19" as="targetPoint" />
            <mxPoint x="3" y="-11" as="offset" />
          </mxGeometry>
        </mxCell>
        <mxCell id="36wpAlq7-YLb4W76ybnT-63" value="" style="edgeStyle=none;endArrow=none;dashed=1;" edge="1" parent="36wpAlq7-YLb4W76ybnT-1" source="36wpAlq7-YLb4W76ybnT-22">
          <mxGeometry x="727.3350694444446" y="165" width="100" height="100" as="geometry">
            <mxPoint x="1073" y="110" as="sourcePoint" />
            <mxPoint x="1073" y="600" as="targetPoint" />
            <Array as="points" />
          </mxGeometry>
        </mxCell>
        <mxCell id="36wpAlq7-YLb4W76ybnT-64" style="edgeStyle=none;curved=1;rounded=0;orthogonalLoop=1;jettySize=auto;html=1;entryX=0;entryY=0.5;entryDx=0;entryDy=0;fontSize=12;startSize=8;endSize=8;" edge="1" parent="36wpAlq7-YLb4W76ybnT-1" source="36wpAlq7-YLb4W76ybnT-65" target="36wpAlq7-YLb4W76ybnT-48">
          <mxGeometry relative="1" as="geometry">
            <Array as="points">
              <mxPoint x="860" y="900" />
              <mxPoint x="890" y="880" />
            </Array>
          </mxGeometry>
        </mxCell>
        <mxCell id="36wpAlq7-YLb4W76ybnT-65" value="Check rights&#xa;before&#xa;reach services" style="rounded=1;fontStyle=1;fillColor=#FFD966;strokeColor=none" vertex="1" parent="36wpAlq7-YLb4W76ybnT-1">
          <mxGeometry x="790" y="900" width="125" height="70" as="geometry" />
        </mxCell>
        <mxCell id="36wpAlq7-YLb4W76ybnT-66" style="edgeStyle=none;curved=1;rounded=0;orthogonalLoop=1;jettySize=auto;html=1;entryX=1.014;entryY=0.368;entryDx=0;entryDy=0;entryPerimeter=0;fontSize=12;startSize=8;endSize=8;" edge="1" parent="36wpAlq7-YLb4W76ybnT-1" source="36wpAlq7-YLb4W76ybnT-67" target="36wpAlq7-YLb4W76ybnT-48">
          <mxGeometry relative="1" as="geometry" />
        </mxCell>
        <mxCell id="36wpAlq7-YLb4W76ybnT-67" value="Request:{&#xa;    header:&#xa;    content:&#xa;    context: {&#xa;         ..., &#xa;        data_service_A, &#xa;        data_service_B  &#xa;} " style="shape=note;align=left" vertex="1" parent="36wpAlq7-YLb4W76ybnT-1">
          <mxGeometry x="977.5" y="730" width="190" height="120" as="geometry" />
        </mxCell>
        <mxCell id="36wpAlq7-YLb4W76ybnT-68" value="" style="edgeStyle=none;endArrow=none;dashed=1" edge="1" parent="36wpAlq7-YLb4W76ybnT-1" target="36wpAlq7-YLb4W76ybnT-69">
          <mxGeometry x="727.3350694444446" y="165" width="100" height="100" as="geometry">
            <mxPoint x="1332" y="110" as="sourcePoint" />
            <mxPoint x="1332" y="1150" as="targetPoint" />
            <Array as="points" />
          </mxGeometry>
        </mxCell>
        <mxCell id="36wpAlq7-YLb4W76ybnT-69" value="" style="fillColor=#008a00;strokeColor=#005700;fontColor=#ffffff;" vertex="1" parent="36wpAlq7-YLb4W76ybnT-1">
          <mxGeometry x="1327.5" y="880" width="10" height="150" as="geometry" />
        </mxCell>
        <mxCell id="36wpAlq7-YLb4W76ybnT-70" value="" style="edgeStyle=none;verticalLabelPosition=top;verticalAlign=bottom;entryX=0;entryY=0;entryDx=0;entryDy=0;exitX=0.912;exitY=0.193;exitDx=0;exitDy=0;exitPerimeter=0;" edge="1" parent="36wpAlq7-YLb4W76ybnT-1" target="36wpAlq7-YLb4W76ybnT-69">
          <mxGeometry width="100" height="100" as="geometry">
            <mxPoint x="927.3646399999997" y="880" as="sourcePoint" />
            <mxPoint x="1202.86" y="880.69" as="targetPoint" />
            <mxPoint x="18" y="-23" as="offset" />
            <Array as="points">
              <mxPoint x="1139.72" y="880.69" />
            </Array>
          </mxGeometry>
        </mxCell>
        <mxCell id="36wpAlq7-YLb4W76ybnT-71" value="&lt;font style=&quot;font-size: 12px;&quot;&gt;Do action on Target Service&lt;/font&gt;" style="edgeLabel;html=1;align=center;verticalAlign=middle;resizable=0;points=[];fontSize=16;" vertex="1" connectable="0" parent="36wpAlq7-YLb4W76ybnT-70">
          <mxGeometry relative="1" as="geometry">
            <mxPoint x="-2" y="19" as="offset" />
          </mxGeometry>
        </mxCell>
        <mxCell id="36wpAlq7-YLb4W76ybnT-72" value="Response" style="edgeStyle=none;verticalLabelPosition=top;verticalAlign=bottom;dashed=1;startArrow=classic;startFill=1;endArrow=none;endFill=0;entryX=0;entryY=1;entryDx=0;entryDy=0;exitX=0.963;exitY=0.795;exitDx=0;exitDy=0;exitPerimeter=0;" edge="1" parent="36wpAlq7-YLb4W76ybnT-1" source="36wpAlq7-YLb4W76ybnT-48" target="36wpAlq7-YLb4W76ybnT-69">
          <mxGeometry width="100" height="100" as="geometry">
            <mxPoint x="937.3599999999997" y="719.4999999999884" as="sourcePoint" />
            <mxPoint x="1217" y="720" as="targetPoint" />
            <mxPoint x="2" y="-10" as="offset" />
          </mxGeometry>
        </mxCell>
        <mxCell id="36wpAlq7-YLb4W76ybnT-73" value="" style="edgeStyle=none;verticalLabelPosition=top;verticalAlign=bottom;entryX=0;entryY=0;entryDx=0;entryDy=0;" edge="1" parent="36wpAlq7-YLb4W76ybnT-1" target="36wpAlq7-YLb4W76ybnT-76">
          <mxGeometry width="100" height="100" as="geometry">
            <mxPoint x="1340" y="940" as="sourcePoint" />
            <mxPoint x="1460" y="948" as="targetPoint" />
            <mxPoint x="18" y="-23" as="offset" />
            <Array as="points" />
          </mxGeometry>
        </mxCell>
        <mxCell id="36wpAlq7-YLb4W76ybnT-74" value="&lt;font style=&quot;font-size: 12px;&quot;&gt;Publish events&lt;/font&gt;" style="edgeLabel;html=1;align=center;verticalAlign=middle;resizable=0;points=[];fontSize=16;" vertex="1" connectable="0" parent="36wpAlq7-YLb4W76ybnT-73">
          <mxGeometry relative="1" as="geometry">
            <mxPoint y="-13" as="offset" />
          </mxGeometry>
        </mxCell>
        <mxCell id="36wpAlq7-YLb4W76ybnT-75" value="" style="edgeStyle=none;endArrow=none;dashed=1" edge="1" parent="36wpAlq7-YLb4W76ybnT-1" target="36wpAlq7-YLb4W76ybnT-76">
          <mxGeometry x="727.3350694444446" y="165" width="100" height="100" as="geometry">
            <mxPoint x="1452" y="110" as="sourcePoint" />
            <mxPoint x="1460" y="1150" as="targetPoint" />
            <Array as="points" />
          </mxGeometry>
        </mxCell>
        <mxCell id="36wpAlq7-YLb4W76ybnT-76" value="" style="fillColor=#1ba1e2;strokeColor=#006EAF;fontColor=#ffffff;" vertex="1" parent="36wpAlq7-YLb4W76ybnT-1">
          <mxGeometry x="1450" y="940" width="10" height="37.61" as="geometry" />
        </mxCell>
        <mxCell id="36wpAlq7-YLb4W76ybnT-77" value="" style="edgeStyle=none;verticalLabelPosition=top;verticalAlign=bottom;" edge="1" parent="36wpAlq7-YLb4W76ybnT-1">
          <mxGeometry width="100" height="100" as="geometry">
            <mxPoint x="1460" y="950" as="sourcePoint" />
            <mxPoint x="1620" y="950" as="targetPoint" />
            <mxPoint x="18" y="-23" as="offset" />
            <Array as="points" />
          </mxGeometry>
        </mxCell>
        <mxCell id="36wpAlq7-YLb4W76ybnT-78" value="&lt;span style=&quot;font-size: 12px;&quot;&gt;events subscriptions&lt;/span&gt;" style="edgeLabel;html=1;align=center;verticalAlign=middle;resizable=0;points=[];fontSize=16;" vertex="1" connectable="0" parent="36wpAlq7-YLb4W76ybnT-77">
          <mxGeometry relative="1" as="geometry">
            <mxPoint y="-13" as="offset" />
          </mxGeometry>
        </mxCell>
        <mxCell id="36wpAlq7-YLb4W76ybnT-79" value="" style="edgeStyle=none;endArrow=none;dashed=1" edge="1" parent="36wpAlq7-YLb4W76ybnT-1" source="36wpAlq7-YLb4W76ybnT-28" target="36wpAlq7-YLb4W76ybnT-80">
          <mxGeometry x="1174.0711805555559" y="210" width="100" height="100" as="geometry">
            <mxPoint x="1625" y="110" as="sourcePoint" />
            <mxPoint x="1620" y="1140" as="targetPoint" />
          </mxGeometry>
        </mxCell>
        <mxCell id="36wpAlq7-YLb4W76ybnT-80" value="" style="fillColor=#008a00;strokeColor=#005700;fontColor=#ffffff;" vertex="1" parent="36wpAlq7-YLb4W76ybnT-1">
          <mxGeometry x="1620" y="950" width="10" height="37.61" as="geometry" />
        </mxCell>
        <mxCell id="36wpAlq7-YLb4W76ybnT-81" style="edgeStyle=none;curved=1;rounded=0;orthogonalLoop=1;jettySize=auto;html=1;entryX=1;entryY=0.5;entryDx=0;entryDy=0;fontSize=12;startSize=8;endSize=8;" edge="1" parent="36wpAlq7-YLb4W76ybnT-1" source="36wpAlq7-YLb4W76ybnT-83" target="36wpAlq7-YLb4W76ybnT-80">
          <mxGeometry relative="1" as="geometry" />
        </mxCell>
        <mxCell id="36wpAlq7-YLb4W76ybnT-82" style="edgeStyle=none;curved=1;rounded=0;orthogonalLoop=1;jettySize=auto;html=1;entryX=1;entryY=0.5;entryDx=0;entryDy=0;fontSize=12;startSize=8;endSize=8;" edge="1" parent="36wpAlq7-YLb4W76ybnT-1" source="36wpAlq7-YLb4W76ybnT-83" target="36wpAlq7-YLb4W76ybnT-91">
          <mxGeometry relative="1" as="geometry" />
        </mxCell>
        <mxCell id="36wpAlq7-YLb4W76ybnT-83" value="Async actions" style="rounded=1;fontStyle=1;fillColor=#FFD966;strokeColor=none" vertex="1" parent="36wpAlq7-YLb4W76ybnT-1">
          <mxGeometry x="1650" y="890" width="110" height="50" as="geometry" />
        </mxCell>
        <mxCell id="36wpAlq7-YLb4W76ybnT-84" style="edgeStyle=none;curved=1;rounded=0;orthogonalLoop=1;jettySize=auto;html=1;entryX=0.9;entryY=0.186;entryDx=0;entryDy=0;entryPerimeter=0;fontSize=12;startSize=8;endSize=8;" edge="1" parent="36wpAlq7-YLb4W76ybnT-1" source="36wpAlq7-YLb4W76ybnT-85" target="36wpAlq7-YLb4W76ybnT-69">
          <mxGeometry relative="1" as="geometry" />
        </mxCell>
        <mxCell id="36wpAlq7-YLb4W76ybnT-85" value="Sync actions" style="rounded=1;fontStyle=1;fillColor=#FFD966;strokeColor=none" vertex="1" parent="36wpAlq7-YLb4W76ybnT-1">
          <mxGeometry x="1340" y="810" width="110" height="50" as="geometry" />
        </mxCell>
        <mxCell id="36wpAlq7-YLb4W76ybnT-86" value="" style="edgeStyle=none;verticalLabelPosition=top;verticalAlign=bottom;" edge="1" parent="36wpAlq7-YLb4W76ybnT-1">
          <mxGeometry width="100" height="100" as="geometry">
            <mxPoint x="1460" y="1020" as="sourcePoint" />
            <mxPoint x="1620" y="1020" as="targetPoint" />
            <mxPoint x="18" y="-23" as="offset" />
            <Array as="points" />
          </mxGeometry>
        </mxCell>
        <mxCell id="36wpAlq7-YLb4W76ybnT-87" value="&lt;font style=&quot;font-size: 12px;&quot;&gt;events subscriptions&lt;/font&gt;" style="edgeLabel;html=1;align=center;verticalAlign=middle;resizable=0;points=[];fontSize=16;" vertex="1" connectable="0" parent="36wpAlq7-YLb4W76ybnT-86">
          <mxGeometry relative="1" as="geometry">
            <mxPoint y="-13" as="offset" />
          </mxGeometry>
        </mxCell>
        <mxCell id="36wpAlq7-YLb4W76ybnT-88" value="" style="edgeStyle=none;endArrow=none;dashed=1" edge="1" parent="36wpAlq7-YLb4W76ybnT-1" source="36wpAlq7-YLb4W76ybnT-76" target="36wpAlq7-YLb4W76ybnT-89">
          <mxGeometry x="727.3350694444446" y="165" width="100" height="100" as="geometry">
            <mxPoint x="1455" y="978" as="sourcePoint" />
            <mxPoint x="1455" y="1150" as="targetPoint" />
            <Array as="points" />
          </mxGeometry>
        </mxCell>
        <mxCell id="36wpAlq7-YLb4W76ybnT-89" value="" style="fillColor=#1ba1e2;strokeColor=#006EAF;fontColor=#ffffff;" vertex="1" parent="36wpAlq7-YLb4W76ybnT-1">
          <mxGeometry x="1450" y="1010" width="10" height="37.61" as="geometry" />
        </mxCell>
        <mxCell id="36wpAlq7-YLb4W76ybnT-90" value="" style="edgeStyle=none;endArrow=none;dashed=1" edge="1" parent="36wpAlq7-YLb4W76ybnT-1" source="36wpAlq7-YLb4W76ybnT-80" target="36wpAlq7-YLb4W76ybnT-91">
          <mxGeometry x="1174.0711805555559" y="210" width="100" height="100" as="geometry">
            <mxPoint x="1625" y="988" as="sourcePoint" />
            <mxPoint x="1625" y="1150" as="targetPoint" />
          </mxGeometry>
        </mxCell>
        <mxCell id="36wpAlq7-YLb4W76ybnT-91" value="" style="fillColor=#008a00;strokeColor=#005700;fontColor=#ffffff;" vertex="1" parent="36wpAlq7-YLb4W76ybnT-1">
          <mxGeometry x="1620" y="1010" width="10" height="37.61" as="geometry" />
        </mxCell>
        <mxCell id="36wpAlq7-YLb4W76ybnT-92" value="" style="edgeStyle=none;verticalLabelPosition=top;verticalAlign=bottom;entryX=0;entryY=0;entryDx=0;entryDy=0;" edge="1" parent="36wpAlq7-YLb4W76ybnT-1">
          <mxGeometry width="100" height="100" as="geometry">
            <mxPoint x="1337.5" y="1010" as="sourcePoint" />
            <mxPoint x="1447.5" y="1010" as="targetPoint" />
            <mxPoint x="18" y="-23" as="offset" />
            <Array as="points" />
          </mxGeometry>
        </mxCell>
        <mxCell id="36wpAlq7-YLb4W76ybnT-93" value="&lt;font style=&quot;font-size: 12px;&quot;&gt;Publish events&lt;/font&gt;" style="edgeLabel;html=1;align=center;verticalAlign=middle;resizable=0;points=[];fontSize=16;" vertex="1" connectable="0" parent="36wpAlq7-YLb4W76ybnT-92">
          <mxGeometry relative="1" as="geometry">
            <mxPoint y="-13" as="offset" />
          </mxGeometry>
        </mxCell>
        <mxCell id="36wpAlq7-YLb4W76ybnT-94" value="Response:{&#xa;    ... &#xa;} " style="shape=note;align=left" vertex="1" parent="36wpAlq7-YLb4W76ybnT-1">
          <mxGeometry x="1100" y="1040" width="190" height="120" as="geometry" />
        </mxCell>
        <mxCell id="36wpAlq7-YLb4W76ybnT-95" value="Target Platform (Sourcing Engine,...)" style="text;html=1;align=center;verticalAlign=middle;resizable=0;points=[];autosize=1;strokeColor=none;fillColor=none;fontSize=16;" vertex="1" parent="36wpAlq7-YLb4W76ybnT-1">
          <mxGeometry x="787.5" y="-10" width="280" height="30" as="geometry" />
        </mxCell>
        <mxCell id="36wpAlq7-YLb4W76ybnT-96" value="LB+GW+Auth" style="text;html=1;align=center;verticalAlign=middle;resizable=0;points=[];autosize=1;strokeColor=none;fillColor=none;fontSize=16;" vertex="1" parent="36wpAlq7-YLb4W76ybnT-1">
          <mxGeometry x="-40" width="120" height="30" as="geometry" />
        </mxCell>
        <mxCell id="36wpAlq7-YLb4W76ybnT-97" style="edgeStyle=none;curved=1;rounded=0;orthogonalLoop=1;jettySize=auto;html=1;entryX=0.75;entryY=1;entryDx=0;entryDy=0;fontSize=12;startSize=8;endSize=8;" edge="1" parent="36wpAlq7-YLb4W76ybnT-1" source="36wpAlq7-YLb4W76ybnT-98" target="36wpAlq7-YLb4W76ybnT-28">
          <mxGeometry relative="1" as="geometry" />
        </mxCell>
        <mxCell id="36wpAlq7-YLb4W76ybnT-98" value="Same platform&#xa;or&#xa;other platforms" style="rounded=1;fontStyle=1;fillColor=#FFD966;strokeColor=none" vertex="1" parent="36wpAlq7-YLb4W76ybnT-1">
          <mxGeometry x="1650" y="160" width="110" height="50" as="geometry" />
        </mxCell>
        <mxCell id="UGno9RePql4v5iNp7rab-0" value="&lt;b&gt;&lt;font style=&quot;font-size: 123px;&quot; color=&quot;#ff0000&quot;&gt;DISCARDED&lt;/font&gt;&lt;/b&gt;" style="text;html=1;strokeColor=none;fillColor=none;align=center;verticalAlign=middle;whiteSpace=wrap;rounded=0;fontSize=16;" vertex="1" parent="36wpAlq7-YLb4W76ybnT-1">
          <mxGeometry x="500" y="121.81" width="937.5" height="420" as="geometry" />
        </mxCell>
      </root>
    </mxGraphModel>
  </diagram>
</mxfile>
